<svg width="292" height="104" viewBox="0 0 292 104" fill="none" xmlns="http://www.w3.org/2000/svg">
<g id="panel3" filter="url(#filter0_d_1_60)">
<path id="Vector" d="M273.285 0H18.7155C16.783 -9.62228e-07 14.8695 0.347636 13.0841 1.02306C11.2987 1.69849 9.67652 2.68848 8.31007 3.9365C6.94361 5.18452 5.85967 6.66614 5.12015 8.29676C4.38063 9.92738 4 11.6751 4 13.44V69.3579C3.99999 71.1229 4.3806 72.8706 5.12012 74.5012C5.85964 76.1318 6.94358 77.6135 8.31004 78.8615C9.6765 80.1095 11.2987 81.0995 13.0841 81.7749C14.8695 82.4503 16.783 82.798 18.7155 82.798H22.452V92.9005C22.452 93.5135 22.651 94.1128 23.0239 94.6225C23.3968 95.1322 23.9269 95.5295 24.547 95.7641C25.1671 95.9986 25.8494 96.06 26.5077 95.9404C27.166 95.8208 27.7707 95.5256 28.2453 95.0922L41.7062 82.798H273.285C275.217 82.798 277.131 82.4503 278.916 81.7749C280.701 81.0995 282.323 80.1095 283.69 78.8615C285.056 77.6135 286.14 76.1318 286.88 74.5012C287.619 72.8706 288 71.1229 288 69.3579V13.44C288 11.6751 287.619 9.92738 286.88 8.29676C286.14 6.66614 285.056 5.18452 283.69 3.9365C282.323 2.68848 280.701 1.69849 278.916 1.02306C277.13 0.347636 275.217 -9.62228e-07 273.285 0Z" fill="#E6E6E6"/>
<path id="Vector_2" d="M208.901 77.2552H18.2918C16.4376 77.2533 14.6599 76.5574 13.3487 75.3202C12.0376 74.0831 11.3001 72.4057 11.298 70.6561V13.7047C11.3001 11.9552 12.0376 10.278 13.3487 9.04092C14.6597 7.80385 16.4373 7.10798 18.2914 7.10596H269.259C271.114 7.10792 272.891 7.80382 274.203 9.04096C275.514 10.2781 276.251 11.9555 276.253 13.7051C276.233 30.5538 269.131 46.707 256.504 58.6209C243.877 70.5347 226.758 77.2363 208.901 77.2552Z" fill="white"/>
<path id="Vector_3" d="M197.03 19.4194H91.0482C88.4274 19.4194 86.3028 21.4241 86.3028 23.897V23.897C86.3028 26.3699 88.4274 28.3746 91.0482 28.3746H197.03C199.651 28.3746 201.776 26.3699 201.776 23.897C201.776 21.4241 199.651 19.4194 197.03 19.4194Z" fill="#6C63FF"/>
<path id="Vector_4" d="M219.571 37.3299H68.5073C65.8864 37.3299 63.7618 39.3346 63.7618 41.8075V41.8076C63.7618 44.2805 65.8864 46.2852 68.5073 46.2852H219.571C222.192 46.2852 224.317 44.2805 224.317 41.8075C224.317 39.3346 222.192 37.3299 219.571 37.3299Z" fill="#E6E6E6"/>
<path id="Vector_5" d="M219.571 55.2405H68.5073C65.8864 55.2405 63.7618 57.2452 63.7618 59.7181V59.7181C63.7618 62.191 65.8864 64.1957 68.5073 64.1957H219.571C222.192 64.1957 224.317 62.191 224.317 59.7181C224.317 57.2452 222.192 55.2405 219.571 55.2405Z" fill="#E6E6E6"/>
</g>
<defs>
<filter id="filter0_d_1_60" x="0" y="0" width="292" height="104" filterUnits="userSpaceOnUse" color-interpolation-filters="sRGB">
<feFlood flood-opacity="0" result="BackgroundImageFix"/>
<feColorMatrix in="SourceAlpha" type="matrix" values="0 0 0 0 0 0 0 0 0 0 0 0 0 0 0 0 0 0 127 0" result="hardAlpha"/>
<feOffset dy="4"/>
<feGaussianBlur stdDeviation="2"/>
<feComposite in2="hardAlpha" operator="out"/>
<feColorMatrix type="matrix" values="0 0 0 0 0 0 0 0 0 0 0 0 0 0 0 0 0 0 0.25 0"/>
<feBlend mode="normal" in2="BackgroundImageFix" result="effect1_dropShadow_1_60"/>
<feBlend mode="normal" in="SourceGraphic" in2="effect1_dropShadow_1_60" result="shape"/>
</filter>
</defs>
</svg>
