<svg width="538" height="367" viewBox="0 0 538 367" fill="none" xmlns="http://www.w3.org/2000/svg">
<g id="undraw_reviews_lp8w 1">
<g id="panel2">
<path id="Vector" d="M290.813 280.363H5.69604C4.451 280.362 3.25735 279.857 2.37698 278.96C1.4966 278.063 1.0014 276.847 1 275.579V188.784C1.0014 187.516 1.4966 186.3 2.37698 185.403C3.25735 184.506 4.451 184.001 5.69604 184H290.813C292.058 184.001 293.251 184.506 294.132 185.403C295.012 186.3 295.507 187.516 295.509 188.784V275.579C295.507 276.847 295.012 278.063 294.132 278.96C293.251 279.857 292.058 280.362 290.813 280.363ZM5.69604 185.367C4.80673 185.368 3.95416 185.728 3.32532 186.369C2.69649 187.009 2.34275 187.878 2.34172 188.784V275.579C2.34275 276.485 2.69649 277.354 3.32532 277.994C3.95416 278.635 4.80673 278.995 5.69604 278.996H290.813C291.702 278.995 292.555 278.635 293.183 277.994C293.812 277.354 294.166 276.485 294.167 275.579V188.784C294.166 187.878 293.812 187.009 293.183 186.369C292.555 185.728 291.702 185.368 290.813 185.367H5.69604Z" fill="#3F3D56"/>
<path id="Vector_2" d="M130.46 316.909C129.901 316.907 129.357 316.724 128.907 316.386L125.166 313.617C124.856 313.386 124.482 313.262 124.097 313.262C123.713 313.262 123.339 313.386 123.028 313.617L119.287 316.386C118.836 316.72 118.293 316.9 117.735 316.9C117.177 316.9 116.634 316.72 116.183 316.386C115.731 316.052 115.396 315.581 115.223 315.041C115.051 314.501 115.051 313.919 115.223 313.378L116.652 308.898C116.771 308.526 116.772 308.125 116.653 307.752C116.534 307.38 116.303 307.056 115.991 306.826L112.25 304.057C111.799 303.723 111.463 303.252 111.291 302.712C111.119 302.172 111.119 301.59 111.291 301.049C111.463 300.509 111.799 300.038 112.25 299.704C112.701 299.37 113.245 299.19 113.802 299.19H118.427C118.811 299.191 119.186 299.067 119.497 298.837C119.807 298.607 120.039 298.282 120.157 297.91L121.585 293.43C121.758 292.889 122.094 292.418 122.545 292.084C122.996 291.75 123.539 291.571 124.097 291.571C124.655 291.571 125.198 291.75 125.65 292.084C126.101 292.418 126.437 292.889 126.609 293.43L128.038 297.91C128.156 298.282 128.387 298.607 128.698 298.837C129.009 299.067 129.383 299.191 129.768 299.19H134.392C134.95 299.19 135.493 299.37 135.944 299.704C136.395 300.038 136.731 300.509 136.904 301.049C137.076 301.59 137.076 302.172 136.904 302.712C136.731 303.252 136.395 303.723 135.944 304.057L132.203 306.826C131.892 307.056 131.66 307.38 131.541 307.752C131.423 308.125 131.423 308.526 131.542 308.898L132.971 313.378C133.15 313.918 133.153 314.502 132.98 315.044C132.808 315.586 132.468 316.056 132.012 316.386C131.562 316.724 131.019 316.907 130.46 316.909Z" fill="#6C63FF"/>
<path id="Vector_3" d="M168.369 316.909C167.81 316.907 167.267 316.724 166.817 316.386L163.076 313.617C162.765 313.386 162.391 313.262 162.007 313.262C161.622 313.262 161.248 313.386 160.938 313.617L157.196 316.386C156.745 316.72 156.202 316.9 155.644 316.9C155.087 316.9 154.543 316.72 154.092 316.386C153.641 316.052 153.305 315.581 153.133 315.041C152.96 314.501 152.96 313.919 153.132 313.378L154.561 308.898C154.681 308.526 154.681 308.125 154.562 307.752C154.444 307.38 154.212 307.056 153.901 306.826L150.16 304.057C149.708 303.723 149.373 303.252 149.2 302.712C149.028 302.172 149.028 301.59 149.2 301.049C149.373 300.509 149.709 300.038 150.16 299.704C150.611 299.37 151.154 299.19 151.712 299.19H156.336C156.72 299.191 157.095 299.067 157.406 298.837C157.717 298.607 157.948 298.282 158.066 297.91L159.495 293.43C159.667 292.889 160.003 292.418 160.454 292.084C160.906 291.75 161.449 291.571 162.007 291.571C162.564 291.571 163.108 291.75 163.559 292.084C164.01 292.418 164.346 292.889 164.518 293.43L165.947 297.91C166.065 298.282 166.296 298.607 166.607 298.837C166.918 299.067 167.293 299.191 167.677 299.19H172.301C172.859 299.19 173.402 299.37 173.854 299.704C174.305 300.038 174.641 300.509 174.813 301.049C174.985 301.59 174.985 302.172 174.813 302.712C174.641 303.252 174.305 303.723 173.854 304.057L170.113 306.826C169.801 307.055 169.57 307.38 169.451 307.752C169.332 308.125 169.332 308.526 169.452 308.898L170.881 313.378C171.059 313.918 171.063 314.502 170.89 315.044C170.717 315.586 170.377 316.056 169.921 316.386C169.472 316.724 168.928 316.907 168.369 316.909Z" fill="#6C63FF"/>
<path id="Vector_4" d="M206.279 316.909C205.72 316.907 205.176 316.724 204.726 316.386L200.985 313.617C200.675 313.387 200.3 313.263 199.916 313.263C199.532 313.263 199.157 313.387 198.847 313.617L195.106 316.386C194.655 316.72 194.111 316.9 193.554 316.9C192.996 316.9 192.453 316.72 192.001 316.386C191.55 316.052 191.214 315.581 191.042 315.041C190.87 314.501 190.87 313.919 191.042 313.378L192.471 308.898C192.59 308.526 192.591 308.125 192.472 307.752C192.353 307.38 192.121 307.056 191.81 306.826L188.069 304.057C187.618 303.723 187.282 303.252 187.11 302.712C186.937 302.172 186.937 301.59 187.11 301.049C187.282 300.509 187.618 300.038 188.069 299.704C188.52 299.37 189.064 299.19 189.621 299.19H194.245C194.63 299.191 195.004 299.067 195.315 298.837C195.626 298.607 195.857 298.282 195.975 297.91L197.404 293.43C197.577 292.889 197.912 292.418 198.364 292.084C198.815 291.75 199.358 291.571 199.916 291.571C200.474 291.571 201.017 291.75 201.468 292.084C201.92 292.418 202.255 292.889 202.428 293.43L203.857 297.91C203.975 298.282 204.206 298.607 204.517 298.837C204.828 299.067 205.202 299.191 205.587 299.19H210.211C210.768 299.19 211.312 299.37 211.763 299.704C212.214 300.038 212.55 300.509 212.722 301.049C212.895 301.59 212.895 302.172 212.722 302.712C212.55 303.252 212.214 303.723 211.763 304.057L208.022 306.826C207.711 307.056 207.479 307.38 207.36 307.752C207.242 308.125 207.242 308.526 207.361 308.898L208.79 313.378C208.969 313.918 208.972 314.502 208.799 315.044C208.626 315.585 208.287 316.056 207.831 316.386C207.381 316.724 206.837 316.907 206.279 316.909Z" fill="#6C63FF"/>
<path id="Vector_5" d="M244.188 316.91C243.629 316.907 243.085 316.724 242.636 316.386L238.895 313.617C238.584 313.386 238.21 313.262 237.826 313.262C237.441 313.262 237.067 313.386 236.756 313.617L233.015 316.386C232.564 316.72 232.021 316.9 231.463 316.9C230.905 316.9 230.362 316.72 229.911 316.386C229.46 316.052 229.124 315.581 228.951 315.041C228.779 314.501 228.779 313.919 228.951 313.378L230.38 308.898C230.5 308.526 230.5 308.125 230.381 307.752C230.263 307.38 230.031 307.056 229.719 306.826L225.978 304.057C225.527 303.723 225.191 303.252 225.019 302.712C224.847 302.172 224.847 301.59 225.019 301.049C225.191 300.509 225.527 300.038 225.978 299.704C226.43 299.37 226.973 299.19 227.531 299.19H232.155C232.539 299.191 232.914 299.067 233.225 298.837C233.536 298.607 233.767 298.282 233.885 297.91L235.314 293.43C235.486 292.889 235.822 292.418 236.273 292.084C236.724 291.75 237.268 291.571 237.825 291.571C238.383 291.571 238.927 291.75 239.378 292.084C239.829 292.418 240.165 292.889 240.337 293.43L241.766 297.91C241.884 298.282 242.115 298.607 242.426 298.837C242.737 299.067 243.112 299.191 243.496 299.19H248.12C248.678 299.19 249.221 299.37 249.672 299.704C250.123 300.038 250.459 300.509 250.632 301.049C250.804 301.59 250.804 302.172 250.632 302.712C250.459 303.252 250.124 303.723 249.672 304.057L245.931 306.826C245.62 307.056 245.388 307.38 245.27 307.752C245.151 308.125 245.151 308.526 245.271 308.898L246.7 313.378C246.878 313.918 246.881 314.502 246.709 315.044C246.536 315.586 246.196 316.056 245.74 316.386C245.291 316.724 244.747 316.907 244.188 316.91Z" fill="#6C63FF"/>
<path id="Vector_6" d="M269.372 317.175C268.759 317.173 268.162 316.971 267.668 316.6C267.167 316.238 266.794 315.721 266.604 315.126C266.414 314.531 266.417 313.889 266.613 313.296L268.043 308.816C268.145 308.497 268.145 308.153 268.043 307.834C267.942 307.515 267.743 307.237 267.476 307.04L263.735 304.271C263.239 303.905 262.871 303.387 262.681 302.794C262.492 302.2 262.492 301.561 262.681 300.967C262.871 300.374 263.239 299.857 263.735 299.49C264.231 299.123 264.828 298.925 265.44 298.925H270.064C270.394 298.926 270.715 298.82 270.981 298.623C271.248 298.426 271.446 298.147 271.547 297.828L272.976 293.348C273.165 292.754 273.534 292.237 274.03 291.87C274.526 291.503 275.122 291.306 275.735 291.306C276.348 291.306 276.945 291.503 277.44 291.87C277.936 292.237 278.305 292.754 278.494 293.348L279.923 297.828C280.024 298.147 280.222 298.426 280.489 298.623C280.755 298.82 281.076 298.926 281.406 298.925H286.03C286.642 298.925 287.239 299.123 287.735 299.49C288.23 299.857 288.599 300.374 288.788 300.967C288.978 301.561 288.978 302.2 288.789 302.794C288.599 303.387 288.23 303.904 287.735 304.271L283.994 307.04C283.727 307.237 283.528 307.515 283.426 307.834C283.325 308.153 283.325 308.497 283.427 308.816L284.856 313.296C285.046 313.89 285.046 314.529 284.856 315.122C284.667 315.716 284.298 316.233 283.802 316.6C283.307 316.967 282.71 317.164 282.097 317.164C281.485 317.164 280.888 316.967 280.392 316.6L276.651 313.831C276.385 313.634 276.064 313.527 275.735 313.527C275.406 313.527 275.085 313.634 274.818 313.831L271.077 316.6C270.583 316.971 269.986 317.173 269.372 317.175ZM275.735 312.159C276.348 312.16 276.945 312.358 277.44 312.725L281.181 315.494C281.447 315.691 281.768 315.798 282.097 315.798C282.427 315.798 282.747 315.692 283.014 315.494C283.28 315.297 283.478 315.019 283.58 314.7C283.682 314.381 283.682 314.038 283.58 313.719L282.151 309.239C281.961 308.645 281.96 308.005 282.15 307.412C282.339 306.818 282.709 306.301 283.205 305.935L286.946 303.165C287.212 302.968 287.411 302.69 287.512 302.371C287.614 302.052 287.614 301.709 287.512 301.39C287.411 301.071 287.212 300.793 286.946 300.596C286.68 300.398 286.359 300.292 286.03 300.292H281.405C280.793 300.293 280.195 300.096 279.699 299.729C279.204 299.362 278.835 298.844 278.647 298.25L277.218 293.77C277.116 293.451 276.918 293.173 276.651 292.976C276.385 292.779 276.064 292.673 275.735 292.673C275.406 292.673 275.085 292.779 274.818 292.976C274.552 293.173 274.354 293.451 274.252 293.77L272.823 298.25C272.635 298.844 272.266 299.362 271.77 299.729C271.275 300.096 270.677 300.293 270.064 300.292H265.44C265.111 300.292 264.79 300.398 264.524 300.596C264.257 300.793 264.059 301.071 263.957 301.39C263.856 301.709 263.856 302.052 263.957 302.371C264.059 302.69 264.257 302.968 264.524 303.165L268.265 305.935C268.761 306.301 269.131 306.818 269.32 307.412C269.51 308.005 269.509 308.645 269.319 309.239L267.889 313.719C267.788 314.038 267.788 314.381 267.889 314.7C267.991 315.019 268.19 315.297 268.456 315.494C268.722 315.691 269.043 315.798 269.372 315.798C269.702 315.798 270.022 315.691 270.289 315.494L274.03 312.725C274.525 312.358 275.122 312.16 275.735 312.159Z" fill="#3F3D56"/>
<path id="Vector_7" d="M37.8974 204.503C36.7409 204.503 35.6318 204.971 34.814 205.804C33.9962 206.637 33.5368 207.767 33.5368 208.945C33.5368 210.123 33.9962 211.253 34.814 212.086C35.6318 212.919 36.7409 213.387 37.8974 213.387H258.611C259.768 213.387 260.877 212.919 261.695 212.086C262.512 211.253 262.972 210.123 262.972 208.945C262.972 207.767 262.512 206.637 261.695 205.804C260.877 204.971 259.768 204.503 258.611 204.503H37.8974Z" fill="#CCCCCC"/>
<path id="Vector_8" d="M37.8974 227.739C36.7409 227.739 35.6318 228.207 34.814 229.04C33.9962 229.873 33.5368 231.003 33.5368 232.182C33.5368 233.36 33.9962 234.49 34.814 235.323C35.6318 236.156 36.7409 236.624 37.8974 236.624H258.611C259.768 236.624 260.877 236.156 261.695 235.323C262.512 234.49 262.972 233.36 262.972 232.182C262.972 231.003 262.512 229.873 261.695 229.04C260.877 228.207 259.768 227.739 258.611 227.739H37.8974Z" fill="#CCCCCC"/>
<path id="Vector_9" d="M37.8974 250.976C36.7409 250.976 35.6318 251.444 34.814 252.277C33.9962 253.11 33.5368 254.24 33.5368 255.418C33.5368 256.596 33.9962 257.726 34.814 258.559C35.6318 259.392 36.7409 259.86 37.8974 259.86H258.611C259.768 259.86 260.877 259.392 261.695 258.559C262.512 257.726 262.972 256.596 262.972 255.418C262.972 254.24 262.512 253.11 261.695 252.277C260.877 251.444 259.768 250.976 258.611 250.976H37.8974Z" fill="#CCCCCC"/>
<path id="Vector_10" d="M37.8974 204.503C36.7409 204.503 35.6318 204.971 34.814 205.804C33.9962 206.637 33.5368 207.767 33.5368 208.945C33.5368 210.123 33.9962 211.253 34.814 212.086C35.6318 212.919 36.7409 213.387 37.8974 213.387H258.611C259.768 213.387 260.877 212.919 261.695 212.086C262.512 211.253 262.972 210.123 262.972 208.945C262.972 207.767 262.512 206.637 261.695 205.804C260.877 204.971 259.768 204.503 258.611 204.503H37.8974Z" fill="#CCCCCC"/>
<path id="Vector_11" d="M37.8974 227.739C36.7409 227.739 35.6318 228.207 34.814 229.04C33.9962 229.873 33.5368 231.003 33.5368 232.182C33.5368 233.36 33.9962 234.49 34.814 235.323C35.6318 236.156 36.7409 236.624 37.8974 236.624H258.611C259.768 236.624 260.877 236.156 261.695 235.323C262.512 234.49 262.972 233.36 262.972 232.182C262.972 231.003 262.512 229.873 261.695 229.04C260.877 228.207 259.768 227.739 258.611 227.739H37.8974Z" fill="#CCCCCC"/>
<path id="Vector_12" d="M37.8974 250.976C36.7409 250.976 35.6318 251.444 34.814 252.277C33.9962 253.11 33.5368 254.24 33.5368 255.418C33.5368 256.596 33.9962 257.726 34.814 258.559C35.6318 259.392 36.7409 259.86 37.8974 259.86H258.611C259.768 259.86 260.877 259.392 261.695 258.559C262.512 257.726 262.972 256.596 262.972 255.418C262.972 254.24 262.512 253.11 261.695 252.277C260.877 251.444 259.768 250.976 258.611 250.976H37.8974Z" fill="#CCCCCC"/>
</g>
<g id="panel1">
<path id="Vector_13" d="M289.813 96.3631H4.69604C3.451 96.3617 2.25735 95.8572 1.37698 94.9604C0.496604 94.0635 0.00139742 92.8475 0 91.5791V4.78399C0.00139742 3.51563 0.496604 2.29963 1.37698 1.40277C2.25735 0.505905 3.451 0.00142359 4.69604 0H289.813C291.058 0.00142179 292.251 0.505905 293.132 1.40277C294.012 2.29963 294.507 3.51563 294.509 4.78399V91.5791C294.507 92.8475 294.012 94.0635 293.132 94.9604C292.251 95.8572 291.058 96.3617 289.813 96.3631ZM4.69604 1.36685C3.80673 1.3679 2.95416 1.72825 2.32532 2.36886C1.69649 3.00947 1.34275 3.87803 1.34172 4.78399V91.5791C1.34275 92.4851 1.69649 93.3537 2.32532 93.9943C2.95416 94.6349 3.80673 94.9952 4.69604 94.9963H289.813C290.702 94.9952 291.555 94.6349 292.183 93.9943C292.812 93.3537 293.166 92.4851 293.167 91.5791V4.78399C293.166 3.87802 292.812 3.00946 292.183 2.36885C291.555 1.72824 290.702 1.36789 289.813 1.36685H4.69604Z" fill="#3F3D56"/>
<path id="Vector_14" d="M129.46 132.91C128.901 132.907 128.357 132.724 127.907 132.386L124.166 129.617C123.856 129.386 123.482 129.262 123.097 129.262C122.713 129.262 122.339 129.386 122.028 129.617L118.287 132.386C117.836 132.72 117.293 132.9 116.735 132.9C116.177 132.9 115.634 132.72 115.183 132.386C114.731 132.052 114.396 131.581 114.223 131.041C114.051 130.501 114.051 129.919 114.223 129.378L115.652 124.898C115.771 124.526 115.772 124.125 115.653 123.752C115.534 123.38 115.303 123.056 114.991 122.826L111.25 120.057C110.799 119.723 110.463 119.252 110.291 118.712C110.119 118.172 110.119 117.59 110.291 117.049C110.463 116.509 110.799 116.038 111.25 115.704C111.701 115.37 112.245 115.19 112.802 115.19H117.427C117.811 115.191 118.186 115.067 118.497 114.837C118.807 114.607 119.039 114.282 119.157 113.91L120.585 109.43C120.758 108.889 121.094 108.418 121.545 108.084C121.996 107.75 122.539 107.571 123.097 107.571C123.655 107.571 124.198 107.75 124.65 108.084C125.101 108.418 125.437 108.889 125.609 109.43L127.038 113.91C127.156 114.282 127.387 114.607 127.698 114.837C128.009 115.067 128.383 115.191 128.768 115.19H133.392C133.95 115.19 134.493 115.37 134.944 115.704C135.395 116.038 135.731 116.509 135.904 117.049C136.076 117.59 136.076 118.172 135.904 118.712C135.731 119.252 135.395 119.723 134.944 120.057L131.203 122.826C130.892 123.056 130.66 123.38 130.541 123.752C130.423 124.125 130.423 124.526 130.542 124.898L131.971 129.378C132.15 129.918 132.153 130.502 131.98 131.044C131.808 131.586 131.468 132.056 131.012 132.386C130.562 132.724 130.019 132.907 129.46 132.91Z" fill="#6C63FF"/>
<path id="Vector_15" d="M167.369 132.91C166.81 132.907 166.267 132.724 165.817 132.386L162.076 129.617C161.765 129.386 161.391 129.262 161.007 129.262C160.622 129.262 160.248 129.386 159.938 129.617L156.196 132.386C155.745 132.72 155.202 132.9 154.644 132.9C154.087 132.9 153.543 132.72 153.092 132.386C152.641 132.052 152.305 131.581 152.133 131.041C151.96 130.501 151.96 129.919 152.132 129.378L153.561 124.898C153.681 124.526 153.681 124.125 153.562 123.752C153.444 123.38 153.212 123.056 152.901 122.826L149.16 120.057C148.708 119.723 148.373 119.252 148.2 118.712C148.028 118.172 148.028 117.59 148.2 117.049C148.373 116.509 148.709 116.038 149.16 115.704C149.611 115.37 150.154 115.19 150.712 115.19H155.336C155.72 115.191 156.095 115.067 156.406 114.837C156.717 114.607 156.948 114.282 157.066 113.91L158.495 109.43C158.667 108.889 159.003 108.418 159.454 108.084C159.906 107.75 160.449 107.571 161.007 107.571C161.564 107.571 162.108 107.75 162.559 108.084C163.01 108.418 163.346 108.889 163.518 109.43L164.947 113.91C165.065 114.282 165.296 114.607 165.607 114.837C165.918 115.067 166.293 115.191 166.677 115.19H171.301C171.859 115.19 172.402 115.37 172.854 115.704C173.305 116.038 173.641 116.509 173.813 117.049C173.985 117.59 173.985 118.172 173.813 118.712C173.641 119.252 173.305 119.723 172.854 120.057L169.113 122.826C168.801 123.056 168.57 123.38 168.451 123.752C168.332 124.125 168.332 124.526 168.452 124.898L169.881 129.378C170.059 129.918 170.063 130.502 169.89 131.044C169.717 131.586 169.377 132.056 168.921 132.386C168.472 132.724 167.928 132.907 167.369 132.91Z" fill="#6C63FF"/>
<path id="Vector_16" d="M205.279 132.91C204.72 132.907 204.176 132.724 203.726 132.386L199.985 129.617C199.675 129.387 199.3 129.263 198.916 129.263C198.532 129.263 198.157 129.387 197.847 129.617L194.106 132.386C193.655 132.72 193.111 132.9 192.554 132.9C191.996 132.9 191.453 132.72 191.001 132.386C190.55 132.052 190.214 131.581 190.042 131.041C189.87 130.501 189.87 129.919 190.042 129.378L191.471 124.898C191.59 124.526 191.591 124.125 191.472 123.752C191.353 123.38 191.121 123.056 190.81 122.826L187.069 120.057C186.618 119.723 186.282 119.252 186.11 118.712C185.937 118.172 185.937 117.59 186.11 117.049C186.282 116.509 186.618 116.038 187.069 115.704C187.52 115.37 188.064 115.19 188.621 115.19H193.245C193.63 115.191 194.004 115.067 194.315 114.837C194.626 114.607 194.857 114.282 194.975 113.91L196.404 109.43C196.577 108.889 196.912 108.418 197.364 108.084C197.815 107.75 198.358 107.571 198.916 107.571C199.474 107.571 200.017 107.75 200.468 108.084C200.92 108.418 201.255 108.889 201.428 109.43L202.857 113.91C202.975 114.282 203.206 114.607 203.517 114.837C203.828 115.067 204.202 115.191 204.587 115.19H209.211C209.768 115.19 210.312 115.37 210.763 115.704C211.214 116.038 211.55 116.509 211.722 117.049C211.895 117.59 211.895 118.172 211.722 118.712C211.55 119.252 211.214 119.723 210.763 120.057L207.022 122.826C206.711 123.056 206.479 123.38 206.36 123.752C206.242 124.125 206.242 124.526 206.361 124.898L207.79 129.378C207.969 129.918 207.972 130.502 207.799 131.044C207.626 131.586 207.287 132.056 206.831 132.386C206.381 132.724 205.837 132.907 205.279 132.91Z" fill="#6C63FF"/>
<path id="Vector_17" d="M268.372 133.175C267.759 133.173 267.162 132.971 266.668 132.6C266.167 132.238 265.794 131.721 265.604 131.126C265.414 130.531 265.417 129.889 265.613 129.296L267.043 124.816C267.145 124.497 267.145 124.153 267.043 123.834C266.942 123.515 266.743 123.237 266.476 123.04L262.735 120.271C262.239 119.905 261.871 119.387 261.681 118.794C261.492 118.2 261.492 117.561 261.681 116.967C261.871 116.374 262.239 115.857 262.735 115.49C263.231 115.123 263.828 114.925 264.44 114.925H269.064C269.394 114.926 269.715 114.82 269.981 114.623C270.248 114.426 270.446 114.147 270.547 113.828L271.976 109.348C272.165 108.754 272.534 108.237 273.03 107.87C273.526 107.503 274.122 107.306 274.735 107.306C275.348 107.306 275.945 107.503 276.44 107.87C276.936 108.237 277.305 108.754 277.494 109.348L278.923 113.828C279.024 114.147 279.222 114.426 279.489 114.623C279.755 114.82 280.076 114.926 280.406 114.925H285.03C285.642 114.925 286.239 115.123 286.735 115.49C287.23 115.857 287.599 116.374 287.788 116.967C287.978 117.561 287.978 118.2 287.789 118.794C287.599 119.387 287.23 119.905 286.735 120.271L282.994 123.04C282.727 123.237 282.528 123.515 282.426 123.834C282.325 124.153 282.325 124.497 282.427 124.816L283.856 129.296C284.046 129.89 284.046 130.529 283.856 131.122C283.667 131.716 283.298 132.233 282.802 132.6C282.307 132.967 281.71 133.164 281.097 133.164C280.485 133.164 279.888 132.967 279.392 132.6L275.651 129.831C275.385 129.634 275.064 129.527 274.735 129.527C274.406 129.527 274.085 129.634 273.818 129.831L270.077 132.6C269.583 132.971 268.986 133.173 268.372 133.175ZM274.735 128.159C275.348 128.16 275.945 128.358 276.44 128.725L280.181 131.494C280.447 131.691 280.768 131.798 281.097 131.798C281.427 131.798 281.747 131.692 282.014 131.494C282.28 131.297 282.478 131.019 282.58 130.7C282.682 130.381 282.682 130.038 282.58 129.719L281.151 125.239C280.961 124.645 280.96 124.005 281.15 123.412C281.339 122.818 281.709 122.301 282.205 121.935L285.946 119.165C286.212 118.968 286.411 118.69 286.512 118.371C286.614 118.052 286.614 117.709 286.512 117.39C286.411 117.071 286.212 116.793 285.946 116.596C285.68 116.398 285.359 116.292 285.03 116.292H280.405C279.793 116.293 279.195 116.096 278.699 115.729C278.204 115.362 277.835 114.844 277.647 114.25L276.218 109.77C276.116 109.451 275.918 109.173 275.651 108.976C275.385 108.779 275.064 108.673 274.735 108.673C274.406 108.673 274.085 108.779 273.818 108.976C273.552 109.173 273.354 109.451 273.252 109.77L271.823 114.25C271.635 114.844 271.266 115.362 270.77 115.729C270.275 116.096 269.677 116.293 269.064 116.292H264.44C264.111 116.292 263.79 116.398 263.524 116.596C263.257 116.793 263.059 117.071 262.957 117.39C262.856 117.709 262.856 118.052 262.957 118.371C263.059 118.69 263.257 118.968 263.524 119.165L267.265 121.935C267.761 122.301 268.131 122.818 268.32 123.412C268.51 124.005 268.509 124.645 268.319 125.239L266.889 129.719C266.788 130.038 266.788 130.381 266.889 130.7C266.991 131.019 267.19 131.297 267.456 131.494C267.722 131.691 268.043 131.798 268.372 131.798C268.702 131.798 269.022 131.691 269.289 131.494L273.03 128.725C273.525 128.358 274.122 128.16 274.735 128.159Z" fill="#3F3D56"/>
<path id="Vector_18" d="M230.133 133.065C229.52 133.063 228.922 132.862 228.428 132.491C227.927 132.128 227.554 131.611 227.365 131.016C227.175 130.421 227.178 129.779 227.374 129.186L228.803 124.706C228.906 124.387 228.906 124.044 228.804 123.724C228.702 123.405 228.504 123.127 228.237 122.931L224.496 120.162C224 119.795 223.631 119.278 223.442 118.684C223.253 118.09 223.253 117.451 223.442 116.858C223.631 116.264 224 115.747 224.496 115.38C224.992 115.013 225.589 114.816 226.201 114.816H230.825C231.155 114.816 231.476 114.71 231.742 114.513C232.009 114.316 232.207 114.037 232.308 113.718L233.737 109.238C233.926 108.645 234.295 108.127 234.791 107.761C235.286 107.394 235.883 107.196 236.496 107.196C237.109 107.196 237.705 107.394 238.201 107.761C238.697 108.127 239.065 108.645 239.255 109.238L240.684 113.718C240.785 114.037 240.983 114.316 241.249 114.513C241.516 114.71 241.837 114.816 242.166 114.816H246.791C247.403 114.816 248 115.013 248.496 115.38C248.991 115.747 249.36 116.264 249.549 116.858C249.739 117.451 249.739 118.09 249.549 118.684C249.36 119.277 248.991 119.795 248.496 120.162L244.755 122.931C244.488 123.127 244.289 123.405 244.187 123.724C244.085 124.044 244.086 124.387 244.188 124.706L245.617 129.186C245.806 129.78 245.806 130.419 245.617 131.013C245.428 131.606 245.059 132.123 244.563 132.49C244.068 132.857 243.471 133.055 242.858 133.055C242.246 133.055 241.649 132.857 241.153 132.49L237.412 129.722C237.146 129.524 236.825 129.417 236.496 129.417C236.166 129.417 235.845 129.524 235.579 129.722L231.838 132.49C231.344 132.861 230.747 133.063 230.133 133.065ZM236.496 128.05C237.109 128.05 237.705 128.248 238.201 128.616L241.942 131.384C242.208 131.582 242.529 131.688 242.858 131.688C243.187 131.688 243.508 131.582 243.775 131.385C244.041 131.188 244.239 130.91 244.341 130.59C244.443 130.271 244.443 129.928 244.341 129.609L242.912 125.129C242.722 124.535 242.721 123.896 242.91 123.302C243.1 122.708 243.469 122.191 243.966 121.825L247.707 119.056C247.973 118.859 248.171 118.581 248.273 118.262C248.375 117.943 248.375 117.599 248.273 117.28C248.171 116.961 247.973 116.683 247.707 116.486C247.44 116.289 247.12 116.183 246.79 116.182H242.166C241.553 116.184 240.956 115.987 240.46 115.62C239.964 115.253 239.596 114.735 239.408 114.141L237.979 109.661C237.877 109.342 237.679 109.064 237.412 108.866C237.146 108.669 236.825 108.563 236.496 108.563C236.166 108.563 235.846 108.669 235.579 108.866C235.313 109.064 235.115 109.342 235.013 109.661L233.584 114.141C233.396 114.735 233.027 115.253 232.531 115.62C232.035 115.987 231.438 116.184 230.825 116.182H226.201C225.872 116.182 225.551 116.289 225.285 116.486C225.018 116.683 224.82 116.961 224.718 117.28C224.617 117.599 224.617 117.943 224.718 118.262C224.82 118.581 225.018 118.859 225.285 119.056L229.026 121.825C229.522 122.191 229.892 122.708 230.081 123.302C230.271 123.896 230.27 124.535 230.08 125.129L228.65 129.609C228.549 129.928 228.549 130.271 228.65 130.59C228.752 130.909 228.95 131.187 229.217 131.385C229.483 131.582 229.804 131.688 230.133 131.688C230.462 131.688 230.783 131.582 231.05 131.384L234.791 128.616C235.286 128.248 235.883 128.05 236.496 128.05Z" fill="#3F3D56"/>
<path id="Vector_19" d="M36.8974 20.5028C35.7409 20.5028 34.6318 20.9708 33.814 21.8039C32.9962 22.637 32.5368 23.7669 32.5368 24.9451C32.5368 26.1232 32.9962 27.2531 33.814 28.0862C34.6318 28.9193 35.7409 29.3873 36.8974 29.3873H257.611C258.768 29.3873 259.877 28.9193 260.695 28.0862C261.512 27.2531 261.972 26.1232 261.972 24.9451C261.972 23.7669 261.512 22.637 260.695 21.8039C259.877 20.9708 258.768 20.5028 257.611 20.5028H36.8974Z" fill="#CCCCCC"/>
<path id="Vector_20" d="M36.8974 43.7393C35.7409 43.7393 34.6318 44.2073 33.814 45.0404C32.9962 45.8735 32.5368 47.0034 32.5368 48.1816C32.5368 49.3597 32.9962 50.4896 33.814 51.3227C34.6318 52.1558 35.7409 52.6238 36.8974 52.6238H257.611C258.768 52.6238 259.877 52.1558 260.695 51.3227C261.512 50.4896 261.972 49.3597 261.972 48.1816C261.972 47.0034 261.512 45.8735 260.695 45.0404C259.877 44.2073 258.768 43.7393 257.611 43.7393H36.8974Z" fill="#CCCCCC"/>
<path id="Vector_21" d="M36.8974 66.9758C35.7409 66.9758 34.6318 67.4438 33.814 68.2769C32.9962 69.11 32.5368 70.2399 32.5368 71.4181C32.5368 72.5962 32.9962 73.7261 33.814 74.5592C34.6318 75.3923 35.7409 75.8603 36.8974 75.8603H257.611C258.768 75.8603 259.877 75.3923 260.695 74.5592C261.512 73.7261 261.972 72.5962 261.972 71.4181C261.972 70.2399 261.512 69.11 260.695 68.2769C259.877 67.4438 258.768 66.9758 257.611 66.9758H36.8974Z" fill="#CCCCCC"/>
<path id="Vector_22" d="M36.8974 20.5028C35.7409 20.5028 34.6318 20.9708 33.814 21.8039C32.9962 22.637 32.5368 23.7669 32.5368 24.9451C32.5368 26.1232 32.9962 27.2531 33.814 28.0862C34.6318 28.9193 35.7409 29.3873 36.8974 29.3873H257.611C258.768 29.3873 259.877 28.9193 260.695 28.0862C261.512 27.2531 261.972 26.1232 261.972 24.9451C261.972 23.7669 261.512 22.637 260.695 21.8039C259.877 20.9708 258.768 20.5028 257.611 20.5028H36.8974Z" fill="#CCCCCC"/>
<path id="Vector_23" d="M36.8974 43.7393C35.7409 43.7393 34.6318 44.2073 33.814 45.0404C32.9962 45.8735 32.5368 47.0034 32.5368 48.1816C32.5368 49.3597 32.9962 50.4896 33.814 51.3227C34.6318 52.1558 35.7409 52.6238 36.8974 52.6238H257.611C258.768 52.6238 259.877 52.1558 260.695 51.3227C261.512 50.4896 261.972 49.3597 261.972 48.1816C261.972 47.0034 261.512 45.8735 260.695 45.0404C259.877 44.2073 258.768 43.7393 257.611 43.7393H36.8974Z" fill="#CCCCCC"/>
<path id="Vector_24" d="M36.8974 66.9758C35.7409 66.9758 34.6318 67.4438 33.814 68.2769C32.9962 69.11 32.5368 70.2399 32.5368 71.4181C32.5368 72.5962 32.9962 73.7261 33.814 74.5592C34.6318 75.3923 35.7409 75.8603 36.8974 75.8603H257.611C258.768 75.8603 259.877 75.3923 260.695 74.5592C261.512 73.7261 261.972 72.5962 261.972 71.4181C261.972 70.2399 261.512 69.11 260.695 68.2769C259.877 67.4438 258.768 66.9758 257.611 66.9758H36.8974Z" fill="#CCCCCC"/>
</g>
</g>
</svg>
