<svg width="488" height="253" viewBox="0 0 488 253" fill="none" xmlns="http://www.w3.org/2000/svg">
<g clip-path="url(#clip0_1_2)">
<path d="M466.339 139.872L464.81 152.219L461.016 182.885H384.798C385.393 176.012 386.207 166.118 387.076 155.439C387.162 154.372 387.252 153.299 387.337 152.219C389.517 125.373 391.902 94.9934 391.902 94.9934L401.923 96.8867L421.364 100.553L429.286 102.047L450.499 106.053C461.076 108.046 468.352 123.579 466.339 139.872Z" fill="#F2F2F2"/>
<path d="M408.687 45.3147L418.06 61.9507L400.045 74.8998L392.36 54.451L408.687 45.3147Z" fill="#FFB6B6"/>
<path d="M396.755 61.0531C409.578 61.0531 419.974 50.5089 419.974 37.5019C419.974 24.495 409.578 13.9508 396.755 13.9508C383.931 13.9508 373.535 24.495 373.535 37.5019C373.535 50.5089 383.931 61.0531 396.755 61.0531Z" fill="#FFB6B6"/>
<path d="M395.087 42.767C393.244 39.9209 393.967 38.4323 392.424 37.3864C392.424 37.3863 391.803 36.9655 387.357 36.7255C386.362 29.4599 385.119 28.5788 385.119 28.5788C383.688 27.5633 381.562 27.8933 380.24 28.5144C377.444 29.8279 377.769 32.6654 375.886 33.2083C373.285 33.9584 368.554 29.73 368.087 24.8892C367.707 20.9405 370.215 17.1054 371.21 17.3083C372.197 17.5094 374.558 14.4515 375.833 14.4986C376.704 14.5309 380.262 12.9623 381.219 13.0849C382.265 13.2189 385.711 15.0431 385.855 14.6263C386.853 11.7301 386.559 10.9265 387.406 10.098C388.907 8.62981 391.362 9.65221 395.213 10.2011C403.136 11.3304 404.519 8.68049 408.58 10.4766C410.631 11.384 412.347 13.8309 415.697 18.6878C420.38 25.48 422.722 28.8762 422.737 32.8373C422.752 36.8769 420.824 36.6205 419.977 42.6008C419.034 49.2579 421.037 52.3019 418.848 54.4646C417.157 56.1362 413.718 56.5329 411.911 55.0659C408.818 52.5543 412.866 46.4936 409.443 42.0657C407.342 39.3477 403.116 38.1383 401.18 39.4818C398.992 41.001 400.198 45.46 398.658 45.8828C397.34 46.2449 395.409 43.2629 395.087 42.767Z" fill="#2F2E41"/>
<path d="M449.177 135.524C448.529 146.756 445.957 150.302 445.055 163.567C444.859 166.479 444.74 169.86 444.74 173.891C444.74 174.919 444.746 175.912 444.746 176.883C444.746 178.95 444.707 180.903 444.47 182.885C444.29 184.466 443.981 186.059 443.468 187.738H393.458C393.453 187.727 393.453 187.715 393.447 187.704C393.154 186.414 392.968 185.18 392.828 183.998C392.783 183.621 392.743 183.25 392.71 182.885C392.664 182.456 392.625 182.034 392.586 181.617C392.434 179.955 392.282 178.385 391.921 176.883C391.437 174.81 390.559 172.857 388.757 170.973C388.02 170.202 387.283 169.603 386.562 169.077C386.421 168.98 386.286 168.883 386.145 168.786C384.152 167.398 382.266 166.399 380.633 163.567C380.605 163.527 380.583 163.481 380.56 163.441C380.279 162.945 379.547 161.643 379.018 159.907C378.46 158.102 378.123 155.835 378.731 153.517C380.178 148.024 385.537 147.476 389.917 141.925C390.39 141.326 390.857 140.663 391.302 139.927C393.283 136.66 393.818 133.783 394.449 130.362C394.55 129.808 394.64 129.26 394.713 128.729C394.77 128.329 394.821 127.935 394.86 127.547C395.209 124.287 395.04 121.477 394.629 118.965C393.29 110.736 389.337 105.643 392.129 98.2594C393.008 95.9413 394.252 94.1996 395.507 92.7093C398.165 89.5514 400.895 87.5015 400.422 83.4246C399.944 79.3132 396.87 78.7478 396.527 75.156C396.352 73.3404 396.937 71.4274 398.035 69.5487V69.5431C401.548 63.4959 410.32 57.9284 415.893 58.1055C416.923 58.1342 417.835 58.3681 418.595 58.8192C421.349 60.4637 420.2 64.0554 424.417 69.092C427.552 72.8321 431.099 74.3282 432.445 75.0361C437.776 77.8572 442.111 86.1769 445.055 96.8149C445.078 96.8949 445.101 96.9746 445.123 97.0605C446.942 103.724 448.226 111.29 448.862 118.965C449.132 122.214 449.289 125.48 449.323 128.712C449.352 131.293 449.295 133.532 449.177 135.524Z" fill="#6C63FF"/>
<path d="M411.727 174.005L410.708 176.883L410.066 178.688L408.58 182.885L406.857 187.738H395.783L397.641 182.885L398.503 180.623L399.933 176.883L402.331 170.602L411.727 174.005Z" fill="#FFB6B6"/>
<path d="M445.23 95.8326C445.202 96.204 445.163 96.615 445.123 97.0605C444.684 101.594 443.648 109.709 442.134 118.965C441.334 123.847 440.4 129.049 439.347 134.217C437.084 145.369 434.269 156.349 431.088 163.567C430.52 164.869 429.934 166.045 429.337 167.085C428.881 167.878 428.402 168.66 427.901 169.431C426.28 171.961 424.461 174.359 422.576 176.598C422.503 176.695 422.418 176.786 422.334 176.883C422.03 177.249 421.714 177.608 421.399 177.968C419.856 179.733 418.28 181.377 416.755 182.885C414.897 184.723 413.106 186.351 411.502 187.738H393.52L393.447 187.704L390.857 186.539C390.857 186.539 391.595 185.66 392.828 183.998C393.081 183.661 393.351 183.29 393.644 182.885C394.004 182.388 394.393 181.84 394.809 181.246C395.676 180.001 396.661 178.539 397.72 176.883C399.769 173.68 402.105 169.74 404.465 165.177C404.735 164.646 405.01 164.109 405.286 163.567C405.292 163.55 405.304 163.533 405.309 163.516C405.776 162.59 406.238 161.637 406.699 160.666C410.612 152.409 411.733 145.557 412.054 143.336C412.504 140.195 413.129 135.804 412.96 130.973C412.847 127.787 412.391 124.418 411.305 121.072V121.066C411.08 120.364 410.826 119.661 410.539 118.965C410.027 117.714 409.419 116.481 408.698 115.265C405.517 109.908 402.933 109.686 400.878 103.85C400.27 102.12 398.891 98.214 399.313 94.0911V94.0855C399.364 93.5772 399.448 93.0634 399.561 92.5492V92.5437C399.589 92.4009 399.629 92.2526 399.668 92.1098C399.989 90.8479 400.518 89.5971 401.323 88.4094C402.894 86.1027 405.039 84.732 406.958 83.9156L406.964 83.9098C409.182 82.9735 411.097 82.7736 411.468 82.7393C419.693 81.9971 426.072 89.0091 429.557 92.8406C430.902 94.3195 432.135 95.5588 433.261 96.5692C442.027 104.507 444.431 99.4358 445.055 96.8149C445.151 96.4095 445.202 96.0612 445.23 95.8326Z" fill="#6C63FF"/>
<path d="M445.258 95.536C445.258 95.5644 445.253 95.6614 445.23 95.8215C445.241 95.7356 445.247 95.65 445.253 95.57C445.253 95.553 445.253 95.5415 445.258 95.536Z" fill="#6C63FF"/>
<path d="M400.546 216.027H98.7588C95.9549 216.027 93.6694 218.339 93.6694 221.183C93.6694 224.032 95.9549 226.345 98.7588 226.345H400.546C403.35 226.345 405.63 224.032 405.63 221.183C405.63 218.339 403.35 216.027 400.546 216.027Z" fill="#E6E6E6"/>
<path d="M333.574 242.682H165.726C162.922 242.682 160.642 244.994 160.642 247.838C160.642 250.682 162.922 253 165.726 253H333.574C336.377 253 338.663 250.682 338.663 247.838C338.663 244.994 336.377 242.682 333.574 242.682Z" fill="#E6E6E6"/>
<path d="M132.34 46.4094L151.36 38.2908L159.518 55.2532L139.531 63.5275L132.34 46.4094Z" fill="#FFB6B6"/>
<path opacity="0.1" d="M132.34 46.4094L151.36 38.2908L159.518 55.2532L139.531 63.5275L132.34 46.4094Z" fill="black"/>
<path d="M135.044 39.9457L153.807 61.8727C153.807 61.8727 140.755 103.658 127.702 107.382C114.649 111.105 90.5836 129.308 90.5836 129.308L60.3994 109.45L75.0836 87.5231C75.0836 87.5231 110.57 38.2908 119.952 38.2908C129.334 38.2908 135.044 39.9457 135.044 39.9457Z" fill="#6C63FF"/>
<path d="M109.693 182.885H66.0161L63.2546 179.141L51.9804 163.854L49.3862 160.337C49.3862 160.337 39.5967 142.134 41.6362 125.585C43.6757 109.036 64.8862 105.313 64.8862 105.313H65.7591L91.7257 128.456L90.1757 149.994L98.3988 163.854L109.693 182.885Z" fill="#2F2E41"/>
<path d="M74.9612 182.885H63.2546V165.302L74.9612 182.885Z" fill="#2F2E41"/>
<path d="M327.456 156.192L326 163.854L322.386 182.885H249.785C250.352 178.619 251.127 172.48 251.955 165.852C252.037 165.19 252.122 164.524 252.204 163.854C254.28 147.193 256.552 128.34 256.552 128.34L266.097 129.515L284.615 131.791L292.161 132.717L312.368 135.204C322.443 136.441 329.373 146.081 327.456 156.192Z" fill="#F2F2F2"/>
<path d="M430.201 182.885H390.823C391.422 182.169 391.761 181.755 391.761 181.755L403.565 179.778L427.888 175.707C427.888 175.707 428.998 178.615 430.201 182.885Z" fill="#2F2E41"/>
<path d="M263.17 54.6843L280.294 79.2484L250.423 80.1532L247.217 57.0688L263.17 54.6843Z" fill="#A0616A"/>
<path opacity="0.1" d="M263.17 54.6843L280.294 79.2484L250.423 80.1532L247.217 57.0688L263.17 54.6843Z" fill="black"/>
<path d="M178.717 105.579C176.52 99.1502 171.468 95.0887 167.434 96.5077C163.4 97.9268 161.913 104.288 164.112 110.719C164.955 113.3 166.396 115.639 168.314 117.54L177.963 144.661L190.415 139.797L179.58 113.577C179.926 110.879 179.63 108.137 178.717 105.579Z" fill="#A0616A"/>
<path d="M294.636 93.0628L294.613 118.097L292.316 127.343L287.593 146.362L284.154 163.854L281.593 176.886L280.679 181.54C279.99 182.008 279.304 182.454 278.619 182.885H218.956C215.567 180.82 213.67 179.215 213.67 179.215C213.67 179.215 214.608 178.321 215.681 176.886C217.492 174.461 219.682 170.49 218.34 166.696C218.059 165.902 217.985 164.934 218.071 163.854C218.618 156.73 225.984 144.682 225.984 144.682L224.459 126.801L223.79 118.966L228.506 80.7586L243.88 71.6941L246.534 71.4337L272.733 69.9981L283.562 70.631L284.055 70.7676L294.636 93.0628Z" fill="#CCCCCC"/>
<path d="M295.8 182.885H282.747L282.172 176.886L282.16 176.766L285.855 176.509L295.469 175.843L295.636 179.434L295.767 182.19L295.8 182.885Z" fill="#FFB6B6"/>
<path d="M299.013 99.1154L304.496 131.745L300.021 163.854L299.324 168.851L298.092 177.676L297.713 180.39L297.725 180.684L297.819 182.885H282.319L281.748 176.886L281.699 176.348L280.532 164.061L280.512 163.854L278.036 137.798L282.89 118.966L283.249 117.58V117.575L285.361 85.3304L283.725 70.6766L283.709 70.54C283.741 70.5607 283.77 70.5814 283.802 70.6021C283.888 70.6559 283.974 70.7096 284.055 70.7676C293.584 76.8989 299.262 87.6555 299.013 99.1154Z" fill="#CCCCCC"/>
<path d="M234.059 87.0112L228.099 80.7582C228.099 80.7582 215.339 86.5926 214.703 89.8295C214.067 93.0664 191.538 140.608 191.538 140.608L181.737 114.056L168.978 122.696C168.978 122.696 179.216 163.919 188.79 165.854C198.364 167.789 230.451 117.063 230.451 117.063L234.059 87.0112Z" fill="#CCCCCC"/>
<path d="M476.082 163.567H11.9128C5.34285 163.567 0 168.992 0 175.655C0 182.319 5.34284 187.738 11.9128 187.738H476.082C482.652 187.738 488 182.319 488 175.655C488 168.991 482.652 163.567 476.082 163.567Z" fill="#E6E6E6"/>
<path d="M291.92 126.732L291.017 169.445C290.93 173.58 287.6 176.886 283.522 176.886H206.054C202.073 176.886 198.787 173.729 198.569 169.698L196.267 126.984C196.032 122.628 199.451 118.966 203.752 118.966H284.425C288.628 118.966 292.01 122.47 291.92 126.732Z" fill="#3F3D56"/>
<path d="M166.86 56.7201C177.096 56.7201 185.394 48.3035 185.394 37.9211C185.394 27.5387 177.096 19.1221 166.86 19.1221C156.624 19.1221 148.325 27.5387 148.325 37.9211C148.325 48.3035 156.624 56.7201 166.86 56.7201Z" fill="#FFB6B6"/>
<path d="M135.86 87.1094L137.899 109.45L151.768 166.129L139.786 170.389L119.544 108.623L116.748 83.7996L135.86 87.1094Z" fill="#FFB6B6"/>
<path d="M130.343 126.732L129.441 169.445C129.353 173.58 126.024 176.886 121.946 176.886H44.4781C40.497 176.886 37.2103 173.729 36.9929 169.698L34.6907 126.984C34.456 122.628 37.875 118.966 42.1759 118.966H122.849C127.052 118.966 130.433 122.47 130.343 126.732Z" fill="#3F3D56"/>
<path d="M153.976 177.175C162.06 177.175 168.614 174.235 168.614 170.608C168.614 166.981 162.06 164.041 153.976 164.041C145.892 164.041 139.339 166.981 139.339 170.608C139.339 174.235 145.892 177.175 153.976 177.175Z" fill="#FFB6B6"/>
<path d="M107.103 90.525L115.465 45.324C115.465 45.324 138.715 42.0143 139.531 49.8749C140.347 57.7355 138.948 96.1514 138.948 96.1514L107.103 90.525Z" fill="#6C63FF"/>
<path d="M159.378 40.8769C159.378 40.8769 170.843 36.7266 175.68 34.4935C180.516 32.2604 190.124 47.8361 190.338 39.61C190.552 31.384 187.232 27.9343 187.232 27.9343C187.232 27.9343 186.403 9.9386 168.528 12.1885C168.528 12.1885 172.459 3.18504 159.553 1.79283C146.647 0.400607 126.568 32.0117 128.366 36.7358C130.165 41.4599 132.32 45.3655 127.219 50.4167C122.117 55.4678 112.564 83.975 119.832 91.646C127.101 99.3171 127.578 102.646 122.598 107.418C117.618 112.191 105.846 122.568 118.574 124.369C131.301 126.171 117.409 124.825 126.898 116.36C136.386 107.895 150.232 108.24 145.062 94.6585C139.893 81.0766 148.874 61.614 147.75 58.6615C146.627 55.7089 150.268 36.9599 150.268 36.9599C150.268 36.9599 158.744 35.6969 159.378 40.8769Z" fill="#2F2E41"/>
<path d="M254.013 63.5753C265.156 63.5753 274.189 54.4132 274.189 43.1112C274.189 31.8093 265.156 22.6472 254.013 22.6472C242.87 22.6472 233.837 31.8093 233.837 43.1112C233.837 54.4132 242.87 63.5753 254.013 63.5753Z" fill="#A0616A"/>
<path d="M255.623 15.5988C255.04 15.9444 254.258 15.4214 254.07 14.7626C253.883 14.1038 254.101 13.4043 254.318 12.7546L255.406 9.48432C256.178 7.16494 256.998 4.76451 258.67 2.99916C261.193 0.334647 265.204 -0.343192 268.815 0.147879C273.452 0.778512 278.026 3.32506 280.182 7.5361C282.338 11.7471 281.42 17.6231 277.525 20.2503C283.077 26.7048 285.012 33.898 284.707 42.4581C284.401 51.0183 275.204 58.8964 269.206 64.9266C267.867 64.1031 266.649 60.2437 267.386 58.8417C268.122 57.4397 267.067 55.8154 267.979 54.524C268.891 53.2326 269.654 55.2889 268.732 54.0048C268.15 53.1945 270.421 51.3304 269.556 50.8454C265.373 48.4997 263.981 43.2103 261.353 39.1597C258.184 34.274 252.759 30.9654 247.018 30.4165C243.856 30.1141 240.516 30.6618 237.924 32.5239C235.332 34.386 233.654 37.7136 234.255 40.8771C232.698 39.274 231.923 36.9245 232.215 34.694C232.508 32.4635 233.861 30.4009 235.776 29.2657C234.611 25.3592 235.609 20.8655 238.313 17.8424C241.016 14.8194 251.982 15.3342 255.929 16.1299L255.623 15.5988Z" fill="#2F2E41"/>
<path d="M256.236 30.5351C261.464 31.1074 265.238 35.7 268.425 39.9412C270.262 42.3858 272.186 45.0854 272.14 48.1586C272.093 51.2657 270.045 53.9308 269.066 56.8754C267.466 61.6885 269.025 67.415 272.834 70.7129C269.071 71.4372 265.002 68.5751 264.353 64.7461C263.596 60.2888 266.928 55.9867 266.533 51.4815C266.186 47.5124 263.102 44.4577 260.48 41.49C257.858 38.5223 255.396 34.5842 256.602 30.7919L256.236 30.5351Z" fill="#2F2E41"/>
<path d="M334.383 166.154C329.205 169.141 326.528 174.271 328.402 177.613C330.277 180.955 335.993 181.242 341.172 178.253C343.257 177.088 345.037 175.433 346.362 173.428L368.142 160.491L361.939 150.254L341.126 164.094C338.748 164.224 336.436 164.931 334.383 166.154Z" fill="#FFB6B6"/>
<path d="M408.126 71.2865C407.476 71.0248 401.765 68.8312 396.551 71.7274C390.562 75.0544 389.637 82.649 389.312 85.3127C388.563 91.466 390.771 92.8452 391.237 99.0747C392.109 110.729 394.408 97.4336 390.736 102.753C389.465 104.595 376.483 133.131 369.323 138.72C355.399 149.591 346.557 157.246 346.557 157.246L356.651 168.368C356.651 168.368 372.602 164.057 386.701 154.772C401.163 145.248 408.394 140.485 413.988 131.169C414.47 130.367 425.998 110.512 419.807 88.557C418.395 83.5492 415.807 74.3738 408.126 71.2865Z" fill="#6C63FF"/>
<path d="M460.252 126.732L459.349 169.445C459.262 173.58 455.932 176.886 451.855 176.886H374.387C370.405 176.886 367.119 173.729 366.901 169.698L364.599 126.984C364.364 122.628 367.783 118.966 372.084 118.966H452.757C456.96 118.966 460.342 122.47 460.252 126.732Z" fill="#3F3D56"/>
</g>
<defs>
<clipPath id="clip0_1_2">
<rect width="488" height="253" fill="white"/>
</clipPath>
</defs>
</svg>
