<svg width="583" height="358" viewBox="0 0 583 358" fill="none" xmlns="http://www.w3.org/2000/svg">
<g id="undraw_code_review_re_woeb (1) 1" clip-path="url(#clip0_1_2)">
<path id="Vector" d="M94.711 166.705C103.245 166.705 110.164 160.145 110.164 152.052C110.164 143.96 103.245 137.4 94.711 137.4C86.1766 137.4 79.258 143.96 79.258 152.052C79.258 160.145 86.1766 166.705 94.711 166.705Z" fill="#FFB8B8"/>
<path id="Vector_2" d="M42.4958 327.641L46.4086 333.945L73.9108 322.633L68.1357 313.331L42.4958 327.641Z" fill="#FFB8B8"/>
<path id="Vector_3" d="M43.6683 324.822L51.3739 337.235C52.0188 338.274 52.4418 339.424 52.6183 340.618C52.7948 341.811 52.7216 343.026 52.4029 344.193C52.0842 345.36 51.5262 346.456 50.7607 347.419C49.9953 348.381 49.0374 349.191 47.9418 349.803L47.6707 349.954L35.0544 329.63L43.6683 324.822Z" fill="#2F2E41"/>
<path id="Vector_4" d="M87.8318 350.349L95.5454 350.348L99.2147 322.137L87.8305 322.138L87.8318 350.349Z" fill="#FFB8B8"/>
<path id="Vector_5" d="M85.8644 347.961L101.055 347.96C102.326 347.96 103.586 348.198 104.76 348.659C105.935 349.12 107.002 349.796 107.901 350.649C108.8 351.501 109.513 352.513 109.999 353.627C110.486 354.74 110.736 355.934 110.736 357.139V357.438L85.8649 357.439L85.8644 347.961Z" fill="#2F2E41"/>
<path id="Vector_6" d="M56.821 333.257C56.3771 333.257 55.9394 333.158 55.5432 332.968C55.1471 332.778 54.8037 332.502 54.5409 332.163L47.1018 322.583C46.8749 322.291 46.7128 321.958 46.6253 321.604C46.5379 321.251 46.5269 320.885 46.593 320.527C46.6591 320.17 46.801 319.829 47.0101 319.525C47.2191 319.221 47.491 318.96 47.8093 318.759L80.9123 297.794L60.9384 247.994L103.652 251.337L105.091 294.132C105.226 298.029 104.241 301.888 102.241 305.295C100.241 308.702 97.3015 311.53 93.7373 313.475L58.2356 332.896C57.8057 333.132 57.3178 333.257 56.821 333.257Z" fill="#2F2E41"/>
<path id="Vector_7" d="M88.0646 344.621C87.3321 344.62 86.6286 344.35 86.1019 343.867C85.5753 343.384 85.2665 342.726 85.2405 342.032L83.6751 300.342L103.059 299.374L101.515 341.363C101.493 342.029 101.209 342.662 100.721 343.14C100.232 343.618 99.5735 343.906 98.8729 343.948L88.2571 344.616C88.1927 344.62 88.1285 344.621 88.0646 344.621Z" fill="#2F2E41"/>
<path id="Vector_8" d="M108.595 259.615C103.664 259.615 86.4383 254.356 80.4583 252.481C79.5637 253.16 74.6491 256.644 68.9124 256.007C65.3727 255.614 62.2565 253.714 59.6504 250.36C53.8954 242.954 61.0035 211.194 67.98 185.854C69.3786 180.732 72.8169 176.324 77.5722 173.556C82.3275 170.788 88.0294 169.876 93.4792 171.011C97.4292 171.838 101.058 173.693 103.957 176.367C106.857 179.042 108.912 182.43 109.893 186.151C111.206 191.221 110.076 197.185 109.251 201.54C108.863 203.587 108.557 205.204 108.662 205.999C109.067 209.07 111.316 257.24 109.87 259.297C109.716 259.516 109.27 259.615 108.595 259.615Z" fill="#6C63FF"/>
<path id="Vector_9" d="M90.554 259.701C91.3466 259.141 92.0002 258.424 92.4688 257.599C92.9373 256.774 93.2094 255.862 93.2659 254.926C93.3224 253.991 93.1619 253.055 92.7957 252.185C92.4295 251.315 91.8665 250.531 91.1465 249.89L91.4518 191.518L76.9528 193.807L81.2118 250.465C80.1552 251.683 79.6068 253.227 79.6703 254.803C79.7339 256.379 80.405 257.879 81.5565 259.017C82.7081 260.156 84.2601 260.854 85.9184 260.98C87.5767 261.106 89.2261 260.651 90.554 259.701Z" fill="#FFB8B8"/>
<path id="Vector_10" d="M93.9075 229.004H78.2904C77.5447 229.002 76.8297 228.722 76.2999 228.224C75.7702 227.727 75.4682 227.051 75.4592 226.344L75.0758 186.199C75.0625 184.811 75.3396 183.434 75.8911 182.148C76.4425 180.862 77.2574 179.693 78.2885 178.707C79.3196 177.722 80.5466 176.94 81.8984 176.407C83.2502 175.874 84.7001 175.601 86.1641 175.602C87.6281 175.604 89.0772 175.881 90.4276 176.417C91.7781 176.953 93.003 177.738 94.0316 178.726C95.0602 179.713 95.872 180.885 96.4202 182.172C96.9683 183.459 97.2419 184.837 97.225 186.225L96.7386 226.351C96.7275 227.057 96.4246 227.73 95.8952 228.226C95.3657 228.723 94.652 229.002 93.9075 229.004Z" fill="#6C63FF"/>
<path id="Vector_11" d="M90.7763 166.644C83.7011 166.656 77.0264 161.354 75.8003 154.746C75.3614 152.151 75.5593 149.494 76.3787 146.982C77.2684 144.124 78.7941 141.479 80.8531 139.226C82.912 136.974 85.4563 135.166 88.3145 133.925C91.1726 132.684 94.2782 132.038 97.4218 132.031C100.565 132.025 103.674 132.657 106.538 133.886C108.431 134.698 110.295 135.864 111.162 137.655C112.028 139.445 111.486 141.947 109.59 142.753C108.351 143.279 106.796 143.021 105.697 143.776C104.119 144.862 104.525 147.172 105.23 148.896C105.935 150.62 106.732 152.706 105.551 154.177C104.449 155.548 102.248 155.505 100.514 154.989C98.7807 154.473 97.0694 153.609 95.2617 153.785C92.6253 154.041 90.7307 156.528 90.38 159.019C90.0293 161.51 90.8548 164 91.6699 166.391L90.7763 166.644Z" fill="#2F2E41"/>
<path id="Vector_12" d="M162.954 358H0.629167C0.462302 358 0.30227 357.937 0.184278 357.825C0.0662866 357.713 0 357.562 0 357.403C0 357.245 0.0662866 357.093 0.184278 356.982C0.30227 356.87 0.462302 356.807 0.629167 356.807H162.954C163.121 356.807 163.281 356.87 163.399 356.982C163.517 357.093 163.583 357.245 163.583 357.403C163.583 357.562 163.517 357.713 163.399 357.825C163.281 357.937 163.121 358 162.954 358Z" fill="#CCCCCC"/>
<g id="displayKeyframes">
<path id="Vector_13" d="M572.619 259.243H169.424C166.672 259.241 164.033 258.203 162.087 256.357C160.141 254.512 159.046 252.01 159.043 249.4V13.6582C159.045 11.7462 159.847 9.91316 161.273 8.56118C162.699 7.20919 164.632 6.44866 166.648 6.44646H575.263C577.314 6.44867 579.281 7.22232 580.731 8.59769C582.182 9.97305 582.998 11.8378 583 13.7828V249.4C582.997 252.01 581.902 254.512 579.956 256.357C578.01 258.203 575.371 259.241 572.619 259.243Z" fill="#F2F2F2"/>
<path id="Vector_14" d="M559.582 246.815H183.816C178.307 246.815 173.826 242.836 173.826 237.945V32.6583C173.826 29.0311 177.147 26.0799 181.229 26.0799H562.047C566.196 26.0799 569.572 29.0797 569.572 32.7667V237.945C569.572 242.836 565.091 246.815 559.582 246.815Z" fill="white"/>
<path id="Vector_15" d="M582.855 14.8848H158.897V9.87331C158.901 7.25485 160 4.74482 161.954 2.89386C163.907 1.04289 166.555 0.00217118 169.316 0H572.436C575.198 0.0021491 577.846 1.04286 579.799 2.89383C581.752 4.74479 582.851 7.25484 582.855 9.87331V14.8848Z" fill="#3F3D56"/>
<path id="Vector_16" d="M177.832 10.0127C179.321 10.0127 180.527 8.8686 180.527 7.45728C180.527 6.04597 179.321 4.90187 177.832 4.90187C176.344 4.90187 175.137 6.04597 175.137 7.45728C175.137 8.8686 176.344 10.0127 177.832 10.0127Z" fill="white"/>
<path id="Vector_17" d="M188.062 10.0127C189.55 10.0127 190.757 8.8686 190.757 7.45728C190.757 6.04597 189.55 4.90187 188.062 4.90187C186.573 4.90187 185.367 6.04597 185.367 7.45728C185.367 8.8686 186.573 10.0127 188.062 10.0127Z" fill="white"/>
<path id="Vector_18" d="M198.291 10.0127C199.78 10.0127 200.986 8.8686 200.986 7.45728C200.986 6.04597 199.78 4.90187 198.291 4.90187C196.803 4.90187 195.596 6.04597 195.596 7.45728C195.596 8.8686 196.803 10.0127 198.291 10.0127Z" fill="white"/>
<path id="Vector_19" d="M362.784 70.9661H289.293C288.197 70.9661 287.146 70.5534 286.371 69.8188C285.597 69.0842 285.161 68.0878 285.161 67.0489C285.161 66.01 285.597 65.0136 286.371 64.279C287.146 63.5444 288.197 63.1316 289.293 63.1316H362.784C363.88 63.1316 364.931 63.5444 365.706 64.279C366.48 65.0136 366.916 66.01 366.916 67.0489C366.916 68.0878 366.48 69.0842 365.706 69.8188C364.931 70.5534 363.88 70.9661 362.784 70.9661Z" fill="#CCCCCC"/>
<path id="Vector_20" d="M454.106 70.9661H380.614C379.518 70.9661 378.467 70.5534 377.693 69.8188C376.918 69.0842 376.483 68.0878 376.483 67.0489C376.483 66.01 376.918 65.0136 377.693 64.279C378.467 63.5444 379.518 63.1316 380.614 63.1316H454.106C455.201 63.1316 456.252 63.5444 457.027 64.279C457.802 65.0136 458.237 66.01 458.237 67.0489C458.237 68.0878 457.802 69.0842 457.027 69.8188C456.252 70.5534 455.201 70.9661 454.106 70.9661Z" fill="#CCCCCC"/>
<path id="Vector_21" d="M454.106 85.8104H326.256C325.16 85.8104 324.109 85.3977 323.335 84.663C322.56 83.9284 322.125 82.9321 322.125 81.8932C322.125 80.8542 322.56 79.8579 323.335 79.1232C324.109 78.3886 325.16 77.9759 326.256 77.9759H454.106C455.201 77.9759 456.252 78.3886 457.027 79.1232C457.802 79.8579 458.237 80.8542 458.237 81.8932C458.237 82.9321 457.802 83.9284 457.027 84.663C456.252 85.3977 455.201 85.8104 454.106 85.8104Z" fill="#CCCCCC"/>
<path id="Vector_22" d="M362.784 55.9157H289.293C288.198 55.9144 287.148 55.5011 286.375 54.7666C285.601 54.0321 285.166 53.0365 285.166 51.9984C285.166 50.9603 285.601 49.9647 286.375 49.2302C287.148 48.4957 288.198 48.0825 289.293 48.0812H362.784C363.327 48.0805 363.865 48.1814 364.367 48.378C364.869 48.5745 365.325 48.863 365.709 49.2268C366.093 49.5906 366.398 50.0227 366.606 50.4982C366.814 50.9738 366.921 51.4836 366.921 51.9984C366.921 52.5132 366.814 53.023 366.606 53.4986C366.398 53.9742 366.093 54.4062 365.709 54.77C365.325 55.1338 364.869 55.4223 364.367 55.6189C363.865 55.8154 363.327 55.9163 362.784 55.9157Z" fill="#CCCCCC"/>
<path id="Vector_23" d="M403.227 56.1218H382.353C381.258 56.1218 380.207 55.7091 379.432 54.9745C378.657 54.2399 378.222 53.2435 378.222 52.2046C378.222 51.1657 378.657 50.1693 379.432 49.4347C380.207 48.7001 381.258 48.2874 382.353 48.2874H403.227C404.322 48.2874 405.373 48.7001 406.148 49.4347C406.923 50.1693 407.358 51.1657 407.358 52.2046C407.358 53.2435 406.923 54.2399 406.148 54.9745C405.373 55.7091 404.322 56.1218 403.227 56.1218Z" fill="#CCCCCC"/>
<path id="Vector_24" d="M310.166 85.8104H289.293C288.198 85.8091 287.148 85.3958 286.375 84.6614C285.601 83.9269 285.166 82.9312 285.166 81.8932C285.166 80.8551 285.601 79.8594 286.375 79.1249C287.148 78.3905 288.198 77.9772 289.293 77.9759H310.166C310.709 77.9753 311.247 78.0761 311.749 78.2727C312.25 78.4693 312.706 78.7577 313.09 79.1215C313.475 79.4853 313.779 79.9174 313.987 80.393C314.195 80.8686 314.302 81.3783 314.302 81.8932C314.302 82.408 314.195 82.9178 313.987 83.3933C313.779 83.8689 313.475 84.301 313.09 84.6648C312.706 85.0286 312.25 85.317 311.749 85.5136C311.247 85.7102 310.709 85.811 310.166 85.8104Z" fill="#CCCCCC"/>
<path id="Vector_25" d="M362.784 209.97H289.293C288.197 209.97 287.146 209.557 286.371 208.822C285.597 208.088 285.161 207.091 285.161 206.053C285.161 205.014 285.597 204.017 286.371 203.283C287.146 202.548 288.197 202.135 289.293 202.135H362.784C363.327 202.135 363.864 202.237 364.365 202.433C364.867 202.63 365.322 202.919 365.706 203.283C366.089 203.646 366.394 204.078 366.601 204.553C366.809 205.029 366.916 205.538 366.916 206.053C366.916 206.567 366.809 207.076 366.601 207.552C366.394 208.027 366.089 208.459 365.706 208.822C365.322 209.186 364.867 209.475 364.365 209.672C363.864 209.868 363.327 209.97 362.784 209.97Z" fill="#CCCCCC"/>
<path id="Vector_26" d="M454.106 209.97H380.614C379.518 209.97 378.467 209.557 377.693 208.822C376.918 208.088 376.483 207.091 376.483 206.053C376.483 205.014 376.918 204.017 377.693 203.283C378.467 202.548 379.518 202.135 380.614 202.135H454.106C454.648 202.135 455.185 202.237 455.687 202.433C456.188 202.63 456.643 202.919 457.027 203.283C457.41 203.646 457.715 204.078 457.922 204.553C458.13 205.029 458.237 205.538 458.237 206.053C458.237 206.567 458.13 207.076 457.922 207.552C457.715 208.027 457.41 208.459 457.027 208.822C456.643 209.186 456.188 209.475 455.687 209.672C455.185 209.868 454.648 209.97 454.106 209.97Z" fill="#CCCCCC"/>
<path id="Vector_27" d="M454.106 224.814H326.256C325.16 224.814 324.109 224.401 323.335 223.667C322.56 222.932 322.125 221.936 322.125 220.897C322.125 219.858 322.56 218.862 323.335 218.127C324.109 217.392 325.16 216.98 326.256 216.98H454.106C454.649 216.979 455.186 217.08 455.688 217.276C456.19 217.473 456.646 217.761 457.03 218.125C457.414 218.489 457.719 218.921 457.927 219.397C458.135 219.872 458.242 220.382 458.242 220.897C458.242 221.412 458.135 221.921 457.927 222.397C457.719 222.873 457.414 223.305 457.03 223.668C456.646 224.032 456.19 224.321 455.688 224.517C455.186 224.714 454.649 224.815 454.106 224.814Z" fill="#CCCCCC"/>
<path id="Vector_28" d="M362.784 194.919H289.293C288.197 194.919 287.146 194.507 286.371 193.772C285.597 193.037 285.161 192.041 285.161 191.002C285.161 189.963 285.597 188.967 286.371 188.232C287.146 187.498 288.197 187.085 289.293 187.085H362.784C363.88 187.085 364.931 187.498 365.706 188.232C366.48 188.967 366.916 189.963 366.916 191.002C366.916 192.041 366.48 193.037 365.706 193.772C364.931 194.507 363.88 194.919 362.784 194.919Z" fill="#CCCCCC"/>
<path id="Vector_29" d="M403.227 195.125H382.353C381.258 195.125 380.207 194.713 379.432 193.978C378.657 193.244 378.222 192.247 378.222 191.208C378.222 190.169 378.657 189.173 379.432 188.438C380.207 187.704 381.258 187.291 382.353 187.291H403.227C404.322 187.291 405.373 187.704 406.148 188.438C406.923 189.173 407.358 190.169 407.358 191.208C407.358 192.247 406.923 193.244 406.148 193.978C405.373 194.713 404.322 195.125 403.227 195.125Z" fill="#CCCCCC"/>
<path id="Vector_30" d="M310.166 224.814H289.293C288.197 224.814 287.146 224.401 286.371 223.667C285.597 222.932 285.161 221.936 285.161 220.897C285.161 219.858 285.597 218.862 286.371 218.127C287.146 217.392 288.197 216.98 289.293 216.98H310.166C310.709 216.979 311.247 217.08 311.749 217.276C312.25 217.473 312.706 217.761 313.09 218.125C313.475 218.489 313.779 218.921 313.987 219.397C314.195 219.872 314.302 220.382 314.302 220.897C314.302 221.412 314.195 221.921 313.987 222.397C313.779 222.873 313.475 223.305 313.09 223.668C312.706 224.032 312.25 224.321 311.749 224.517C311.247 224.714 310.709 224.815 310.166 224.814Z" fill="#CCCCCC"/>
<g id="sol">
<path id="Vector_31" d="M343.591 167.915C342.031 167.918 340.533 167.337 339.423 166.298L311.797 140.431C311.255 139.923 310.824 139.318 310.531 138.651C310.237 137.984 310.085 137.269 310.085 136.546C310.085 135.823 310.237 135.108 310.531 134.441C310.824 133.774 311.255 133.169 311.797 132.661L339.312 106.898C340.458 105.83 342.002 105.234 343.609 105.239C345.216 105.244 346.757 105.849 347.896 106.924C349.036 108.008 349.676 109.476 349.676 111.007C349.676 112.537 349.036 114.006 347.896 115.089L327.45 134.476C326.813 135.082 326.456 135.902 326.456 136.757C326.456 137.612 326.813 138.432 327.45 139.038L347.785 158.32C348.615 159.105 349.181 160.107 349.41 161.198C349.64 162.289 349.522 163.42 349.073 164.448C348.624 165.475 347.863 166.353 346.887 166.971C345.911 167.588 344.764 167.917 343.591 167.915Z" fill="#6C63FF"/>
</g>
<g id="sag">
<path id="Vector_32" d="M387.611 167.915C386.438 167.917 385.29 167.588 384.314 166.971C383.338 166.353 382.577 165.475 382.128 164.448C381.679 163.42 381.562 162.289 381.791 161.198C382.02 160.107 382.586 159.105 383.416 158.32L403.751 139.038C404.388 138.433 404.746 137.612 404.746 136.757C404.746 135.902 404.388 135.082 403.751 134.476L383.305 115.089C382.74 114.553 382.291 113.917 381.985 113.216C381.679 112.516 381.522 111.765 381.522 111.007C381.522 110.248 381.68 109.498 381.986 108.797C382.292 108.097 382.74 107.46 383.306 106.924C384.445 105.849 385.985 105.243 387.592 105.239C389.199 105.234 390.743 105.83 391.89 106.898L419.404 132.661C419.946 133.169 420.377 133.774 420.671 134.441C420.965 135.108 421.116 135.823 421.116 136.546C421.116 137.269 420.965 137.984 420.671 138.651C420.377 139.318 419.946 139.923 419.404 140.431L391.778 166.298C390.668 167.337 389.17 167.918 387.611 167.915Z" fill="#6C63FF"/>
</g>
</g>
</g>
<defs>
<clipPath id="clip0_1_2">
<rect width="583" height="358" fill="white"/>
</clipPath>
</defs>
</svg>
